<svg width="75" height="60" viewBox="0 0 75 60" fill="none" xmlns="http://www.w3.org/2000/svg">
<mask id="path-1-inside-1_23_71" fill="white">
<path d="M22.3076 18.7784C27.6096 21.5237 30.0832 27.579 28.5083 33.1071L48.546 43.4823L46.2766 47.8652L26.2389 37.4899C22.6335 41.9668 16.261 43.4415 10.9589 40.6962C4.9065 37.5622 2.5405 30.1154 5.67438 24.0629C8.80831 18.0105 16.2552 15.6446 22.3076 18.7784Z"/>
</mask>
<path d="M22.3076 18.7784C27.6096 21.5237 30.0832 27.579 28.5083 33.1071L48.546 43.4823L46.2766 47.8652L26.2389 37.4899C22.6335 41.9668 16.261 43.4415 10.9589 40.6962C4.9065 37.5622 2.5405 30.1154 5.67438 24.0629C8.80831 18.0105 16.2552 15.6446 22.3076 18.7784Z" fill="url(#paint0_linear_23_71)"/>
<path d="M22.3076 18.7784L22.6859 18.0478L22.6859 18.0478L22.3076 18.7784ZM28.5083 33.1071L27.7171 32.8816L27.5328 33.5284L28.13 33.8377L28.5083 33.1071ZM48.546 43.4823L49.2766 43.8606L49.6549 43.13L48.9243 42.7517L48.546 43.4823ZM46.2766 47.8652L45.8983 48.5958L46.6289 48.9741L47.0072 48.2435L46.2766 47.8652ZM26.2389 37.4899L26.6172 36.7593L26.02 36.4501L25.5982 36.9739L26.2389 37.4899ZM10.9589 40.6962L10.5806 41.4268L10.5806 41.4268L10.9589 40.6962ZM5.67438 24.0629L4.94379 23.6846L4.94378 23.6846L5.67438 24.0629ZM22.3076 18.7784L21.9294 19.509C26.8771 22.0708 29.1869 27.7225 27.7171 32.8816L28.5083 33.1071L29.2996 33.3325C30.9796 27.4355 28.3422 20.9765 22.6859 18.0478L22.3076 18.7784ZM28.5083 33.1071L28.13 33.8377L48.1677 44.2129L48.546 43.4823L48.9243 42.7517L28.8866 32.3764L28.5083 33.1071ZM48.546 43.4823L47.8154 43.104L45.546 47.4869L46.2766 47.8652L47.0072 48.2435L49.2766 43.8606L48.546 43.4823ZM46.2766 47.8652L46.6549 47.1346L26.6172 36.7593L26.2389 37.4899L25.8606 38.2205L45.8983 48.5958L46.2766 47.8652ZM26.2389 37.4899L25.5982 36.9739C22.2334 41.1519 16.285 42.5275 11.3372 39.9656L10.9589 40.6962L10.5806 41.4268C16.237 44.3555 23.0337 42.7816 26.8797 38.006L26.2389 37.4899ZM10.9589 40.6962L11.3372 39.9656C5.68829 37.0405 3.48004 30.0901 6.40499 24.4412L5.67438 24.0629L4.94378 23.6846C1.60097 30.1406 4.12472 38.0839 10.5806 41.4268L10.9589 40.6962ZM5.67438 24.0629L6.40498 24.4412C9.32998 18.7923 16.2804 16.5841 21.9294 19.509L22.3076 18.7784L22.6859 18.0478C16.23 14.7051 8.28664 17.2287 4.94379 23.6846L5.67438 24.0629Z" fill="#F8FAFC" mask="url(#path-1-inside-1_23_71)"/>
<rect x="59.0738" y="27.4203" width="12.7394" height="4.11366" transform="rotate(94.2438 59.0738 27.4203)" fill="url(#paint1_linear_23_71)" stroke="#F8FAFC" stroke-width="0.822731"/>
<mask id="path-4-inside-2_23_71" fill="white">
<path d="M62.5038 27.3436C56.8526 29.2703 50.7701 26.8645 47.8702 21.9016L28.4243 28.5313L26.8313 23.8589L46.2772 17.2292C45.5419 11.5286 48.8883 5.90895 54.5392 3.98236C60.9903 1.78307 68.0028 5.22963 70.2022 11.6807C72.4014 18.1317 68.9548 25.1442 62.5038 27.3436Z"/>
</mask>
<path d="M62.5038 27.3436C56.8526 29.2703 50.7701 26.8645 47.8702 21.9016L28.4243 28.5313L26.8313 23.8589L46.2772 17.2292C45.5419 11.5286 48.8883 5.90895 54.5392 3.98236C60.9903 1.78307 68.0028 5.22963 70.2022 11.6807C72.4014 18.1317 68.9548 25.1442 62.5038 27.3436Z" fill="url(#paint2_linear_23_71)"/>
<path d="M62.5038 27.3436L62.7693 28.1223L62.7693 28.1223L62.5038 27.3436ZM47.8702 21.9016L48.5805 21.4866L48.2412 20.9059L47.6047 21.1229L47.8702 21.9016ZM28.4243 28.5313L27.6456 28.7968L27.9111 29.5755L28.6898 29.31L28.4243 28.5313ZM26.8313 23.8589L26.5658 23.0802L25.7871 23.3457L26.0526 24.1244L26.8313 23.8589ZM46.2772 17.2292L46.5427 18.0079L47.1792 17.7909L47.0931 17.1239L46.2772 17.2292ZM54.5392 3.98236L54.2737 3.20363L54.2737 3.20364L54.5392 3.98236ZM70.2022 11.6807L70.9809 11.4152L70.9809 11.4152L70.2022 11.6807ZM62.5038 27.3436L62.2383 26.5649C56.9647 28.3628 51.2869 26.1182 48.5805 21.4866L47.8702 21.9016L47.1598 22.3167C50.2533 27.6108 56.7405 30.1777 62.7693 28.1223L62.5038 27.3436ZM47.8702 21.9016L47.6047 21.1229L28.1588 27.7526L28.4243 28.5313L28.6898 29.31L48.1356 22.6803L47.8702 21.9016ZM28.4243 28.5313L29.203 28.2658L27.61 23.5934L26.8313 23.8589L26.0526 24.1244L27.6456 28.7968L28.4243 28.5313ZM26.8313 23.8589L27.0968 24.6376L46.5427 18.0079L46.2772 17.2292L46.0117 16.4505L26.5658 23.0802L26.8313 23.8589ZM46.2772 17.2292L47.0931 17.1239C46.4069 11.8039 49.5313 6.55895 54.8047 4.76107L54.5392 3.98236L54.2737 3.20364C48.2452 5.25894 44.6768 11.2534 45.4612 17.3344L46.2772 17.2292ZM54.5392 3.98236L54.8047 4.76108C60.8257 2.70841 67.3707 5.9252 69.4234 11.9462L70.2022 11.6807L70.9809 11.4152C68.6349 4.53405 61.1549 0.857733 54.2737 3.20363L54.5392 3.98236ZM70.2022 11.6807L69.4234 11.9462C71.4761 17.9671 68.2592 24.5121 62.2383 26.5649L62.5038 27.3436L62.7693 28.1223C69.6504 25.7763 73.3268 18.2963 70.9809 11.4152L70.2022 11.6807Z" fill="#F8FAFC" mask="url(#path-4-inside-2_23_71)"/>
<circle cx="55.5343" cy="49.7153" r="9.87278" fill="url(#paint3_linear_23_71)" stroke="#F8FAFC" stroke-width="0.822731"/>
<defs>
<linearGradient id="paint0_linear_23_71" x1="32.2172" y1="23.9094" x2="20.8685" y2="45.8272" gradientUnits="userSpaceOnUse">
<stop stop-color="#9767FF"/>
<stop offset="1" stop-color="#6163B9"/>
</linearGradient>
<linearGradient id="paint1_linear_23_71" x1="67.0747" y1="22.6333" x2="63.9464" y2="36.0653" gradientUnits="userSpaceOnUse">
<stop offset="0.355769" stop-color="#7CA6FC"/>
<stop offset="1" stop-color="#73F397"/>
</linearGradient>
<linearGradient id="paint2_linear_23_71" x1="38.2574" y1="17.2178" x2="74.0457" y2="16.3951" gradientUnits="userSpaceOnUse">
<stop stop-color="#73F397"/>
<stop offset="1" stop-color="#7CA6FC"/>
</linearGradient>
<linearGradient id="paint3_linear_23_71" x1="55.5343" y1="39.4312" x2="55.5343" y2="59.9994" gradientUnits="userSpaceOnUse">
<stop stop-color="#7CA6FC"/>
<stop offset="1" stop-color="#0055C4"/>
</linearGradient>
</defs>
</svg>
